ground reactions
version=1
nRows=21
nColumns=19
inDegrees=no
endheader
time	ground_force_l_vx	ground_force_l_vy	ground_force_l_vz	ground_force_l_px	ground_force_l_py	ground_force_l_pz	ground_torque_l_x	ground_torque_l_y	ground_torque_l_z	ground_force_r_vx	ground_force_r_vy	ground_force_r_vz	ground_force_r_px	ground_force_r_py	ground_force_r_pz	ground_torque_r_x	ground_torque_r_y	ground_torque_r_z
2.905000	-29.393225	326.323231	-5.316599	1.119607	0.000000	-0.563666	0.000000	1.220815	0.000000	115.795728	533.946378	-15.408472	0.643454	0.000000	-0.428071	0.000000	1.689185	0.000000
2.906000	-31.419257	331.880169	-4.719000	1.121345	0.000000	-0.564463	0.000000	1.260141	0.000000	115.327490	527.726742	-14.827502	0.642321	0.000000	-0.428017	0.000000	1.704458	0.000000
2.907000	-33.390216	337.545738	-4.111504	1.123068	0.000000	-0.565314	0.000000	1.297570	0.000000	114.836643	521.464063	-14.225901	0.641188	0.000000	-0.427954	0.000000	1.719106	0.000000
2.908000	-35.304662	343.323807	-3.496796	1.124745	0.000000	-0.566203	0.000000	1.332866	0.000000	114.323052	515.160375	-13.603233	0.640060	0.000000	-0.427884	0.000000	1.733014	0.000000
2.909000	-37.162030	349.217211	-2.877285	1.126347	0.000000	-0.567118	0.000000	1.365827	0.000000	113.786507	508.817595	-12.959332	0.638941	0.000000	-0.427808	0.000000	1.746091	0.000000
2.910000	-38.962589	355.227734	-2.255080	1.127853	0.000000	-0.568046	0.000000	1.396283	0.000000	113.226725	502.437529	-12.294313	0.637835	0.000000	-0.427728	0.000000	1.758269	0.000000
2.911000	-40.707382	361.356111	-1.631965	1.129244	0.000000	-0.568973	0.000000	1.424104	0.000000	112.643362	496.021872	-11.608585	0.636749	0.000000	-0.427645	0.000000	1.769507	0.000000
2.912000	-42.398168	367.602033	-1.009392	1.130505	0.000000	-0.569891	0.000000	1.449194	0.000000	112.036017	489.572217	-10.902848	0.635686	0.000000	-0.427563	0.000000	1.779788	0.000000
2.913000	-44.037345	373.964166	-0.388477	1.131624	0.000000	-0.570787	0.000000	1.471500	0.000000	111.404243	483.090057	-10.178097	0.634651	0.000000	-0.427482	0.000000	1.789120	0.000000
2.914000	-45.627876	380.440181	0.229994	1.132592	0.000000	-0.571653	0.000000	1.491005	0.000000	110.747554	476.576800	-9.435612	0.633651	0.000000	-0.427407	0.000000	1.797536	0.000000
2.915000	-47.173198	387.026786	0.845550	1.133405	0.000000	-0.572479	0.000000	1.507734	0.000000	110.065438	470.033775	-8.676949	0.632689	0.000000	-0.427338	0.000000	1.805092	0.000000
2.916000	-48.677144	393.719769	1.458015	1.134057	0.000000	-0.573258	0.000000	1.521746	0.000000	109.357367	463.462250	-7.903919	0.631771	0.000000	-0.427280	0.000000	1.811862	0.000000
2.917000	-50.143844	400.514049	2.067478	1.134549	0.000000	-0.573981	0.000000	1.533138	0.000000	108.622807	456.863442	-7.118575	0.630900	0.000000	-0.427234	0.000000	1.817941	0.000000
2.918000	-51.577638	407.403728	2.674255	1.134882	0.000000	-0.574643	0.000000	1.542041	0.000000	107.861231	450.238533	-6.323179	0.630081	0.000000	-0.427204	0.000000	1.823439	0.000000
2.919000	-52.982989	414.382150	3.278854	1.135060	0.000000	-0.575239	0.000000	1.548617	0.000000	107.072126	443.588686	-5.520181	0.629317	0.000000	-0.427190	0.000000	1.828480	0.000000
2.920000	-54.364391	421.441965	3.881926	1.135089	0.000000	-0.575764	0.000000	1.553056	0.000000	106.255009	436.915062	-4.712181	0.628610	0.000000	-0.427196	0.000000	1.833196	0.000000
2.921000	-55.726288	428.575193	4.484217	1.134980	0.000000	-0.576217	0.000000	1.555575	0.000000	105.409432	430.218836	-3.901901	0.627963	0.000000	-0.427223	0.000000	1.837726	0.000000
2.922000	-57.072996	435.773294	5.086524	1.134740	0.000000	-0.576596	0.000000	1.556410	0.000000	104.534994	423.501213	-3.092146	0.627378	0.000000	-0.427272	0.000000	1.842209	0.000000
2.923000	-58.408629	443.027234	5.689641	1.134384	0.000000	-0.576900	0.000000	1.555817	0.000000	103.631346	416.763445	-2.285767	0.626855	0.000000	-0.427344	0.000000	1.846786	0.000000
2.924000	-59.737033	450.327558	6.294312	1.133925	0.000000	-0.577131	0.000000	1.554064	0.000000	102.698203	410.006844	-1.485628	0.626394	0.000000	-0.427439	0.000000	1.851588	0.000000
2.925000	-61.061728	457.664459	6.901188	1.133375	0.000000	-0.577292	0.000000	1.551429	0.000000	101.735348	403.232800	-0.694566	0.625993	0.000000	-0.427557	0.000000	1.856740	0.000000
